<svg xmlns="http://www.w3.org/2000/svg" version="1.1" xmlns:xlink="http://www.w3.org/1999/xlink" width="512" height="512" x="0" y="0" viewBox="0 0 135 135" style="enable-background:new 0 0 512 512" xml:space="preserve" class=""><g><path fill="#4f4b48" d="M117.667 30.565c6.312 8.672 7.635 20.496 2.378 30.678-5.255 10.184-15.657 15.953-26.386 15.832-6.312-8.674-7.635-20.494-2.377-30.678 5.256-10.183 15.656-15.953 26.385-15.832z" opacity="1" data-original="#4f4b48"></path><path fill="#33363a" d="M93.659 77.075c-6.312-8.674-7.635-20.494-2.377-30.678 5.256-10.184 15.656-15.953 26.385-15.832" opacity="1" data-original="#33363a"></path><path fill="#33363a" d="m93.99 78.577-.348-.002a1.502 1.502 0 0 1-1.196-.617c-6.909-9.493-7.865-21.851-2.497-32.249 5.299-10.267 15.793-16.646 27.387-16.646l.348.002c.474.006.917.234 1.196.617 6.909 9.493 7.866 21.851 2.498 32.249-5.298 10.267-15.793 16.646-27.388 16.646zm22.903-46.51c-10.29.16-19.562 5.884-24.277 15.018-4.729 9.16-4.018 20.006 1.818 28.488 10.291-.16 19.564-5.884 24.278-15.018 4.729-9.159 4.017-20.004-1.819-28.488z" opacity="1" data-original="#33363a"></path><path fill="#efa3cc" d="M113.052 41.421c3.885 5.336 4.699 12.613 1.463 18.881-3.234 6.268-9.637 9.82-16.24 9.744-3.885-5.338-4.698-12.613-1.463-18.881 3.234-6.269 9.636-9.82 16.24-9.744z" opacity="1" data-original="#efa3cc"></path><path fill="#33363a" d="m98.482 71.547-.226-.001a1.499 1.499 0 0 1-1.195-.617c-4.381-6.02-4.987-13.856-1.583-20.452 3.359-6.512 10.014-10.557 17.365-10.557l.226.001a1.5 1.5 0 0 1 1.195.617c4.382 6.02 4.988 13.856 1.583 20.452-3.36 6.512-10.014 10.557-17.365 10.557zm13.791-28.617c-5.996.202-11.373 3.582-14.129 8.923-2.765 5.355-2.402 11.68.908 16.685 5.995-.202 11.372-3.582 14.129-8.923 2.766-5.357 2.405-11.68-.908-16.685z" opacity="1" data-original="#33363a"></path><path fill="#4f4b48" d="M17.333 30.565c-6.312 8.672-7.636 20.496-2.378 30.678C20.21 71.427 30.612 77.196 41.34 77.075c6.312-8.674 7.635-20.494 2.379-30.678S28.062 30.444 17.333 30.565z" opacity="1" data-original="#4f4b48"></path><path fill="#33363a" d="M41.34 77.075c6.312-8.674 7.635-20.494 2.379-30.678S28.062 30.444 17.333 30.565" opacity="1" data-original="#33363a"></path><path fill="#33363a" d="M41.009 78.577c-11.595 0-22.089-6.379-27.387-16.646C8.253 51.534 9.21 39.177 16.12 29.683a1.503 1.503 0 0 1 1.196-.617l.348-.002c11.594 0 22.089 6.379 27.388 16.646 5.367 10.398 4.409 22.755-2.499 32.248a1.503 1.503 0 0 1-1.196.617zm-22.902-46.51c-5.837 8.483-6.549 19.329-1.819 28.487 4.714 9.135 13.986 14.858 24.277 15.019 5.836-8.482 6.548-19.328 1.82-28.488-4.714-9.134-13.988-14.857-24.278-15.018z" opacity="1" data-original="#33363a"></path><path fill="#efa3cc" d="M21.948 41.421c-3.885 5.336-4.699 12.613-1.464 18.881 3.234 6.268 9.637 9.82 16.24 9.744 3.885-5.338 4.699-12.613 1.464-18.881-3.235-6.269-9.636-9.82-16.24-9.744z" opacity="1" data-original="#efa3cc"></path><path fill="#33363a" d="M36.517 71.547c-7.351 0-14.005-4.046-17.365-10.558-3.405-6.596-2.798-14.433 1.584-20.451a1.501 1.501 0 0 1 1.195-.617l.226-.001c7.351 0 14.005 4.045 17.365 10.558 3.404 6.595 2.797 14.431-1.584 20.451a1.5 1.5 0 0 1-1.195.617zM22.727 42.93c-3.312 5.005-3.674 11.328-.909 16.684 2.756 5.342 8.133 8.722 14.129 8.924 3.311-5.006 3.673-11.329.909-16.684-2.756-5.342-8.134-8.722-14.129-8.924z" opacity="1" data-original="#33363a"></path><path fill="#fbfcf2" d="M116.709 80.892c0 20.676-22.032 37.441-49.209 37.441-27.178 0-49.209-16.766-49.209-37.441 0-20.68 22.031-45.459 49.209-45.459 27.177 0 49.209 24.779 49.209 45.459z" opacity="1" data-original="#fbfcf2"></path><path fill="#eae4c5" d="M116.709 80.892c0 20.676-22.032 37.441-49.209 37.441-27.178 0-49.209-16.766-49.209-37.441 0-20.68 22.031-34.928 49.209-34.928 27.177 0 49.209 14.248 49.209 34.928z" opacity="1" data-original="#eae4c5"></path><path fill="#ddd2b1" d="M116.709 80.892c0 20.676-22.032 37.441-49.209 37.441-27.178 0-49.209-16.766-49.209-37.441 0-20.682 6.262 18.34 49.209 18.34 42.948-.001 49.209-39.022 49.209-18.34z" opacity="1" data-original="#ddd2b1"></path><path fill="#33363a" d="M67.5 119.833c-27.961 0-50.709-17.469-50.709-38.941 0-21.27 22.619-46.959 50.709-46.959 13.041 0 25.772 5.472 35.849 15.406 9.305 9.174 14.86 20.97 14.86 31.553 0 21.472-22.748 38.941-50.709 38.941zm0-82.9c-26.428 0-47.709 24.048-47.709 43.959 0 19.818 21.402 35.941 47.709 35.941s47.709-16.123 47.709-35.941c0-19.912-21.281-43.959-47.709-43.959z" opacity="1" data-original="#33363a"></path><path fill="#a35616" d="M51.338 78.733a8.05 8.05 0 0 1-8.053 8.051 8.05 8.05 0 1 1 0-16.102 8.053 8.053 0 0 1 8.053 8.051z" opacity="1" data-original="#a35616"></path><path fill="#33363a" d="M51.338 78.733c0 4.449-3.605 1.664-8.053 1.664-4.445 0-8.051 2.785-8.051-1.664a8.053 8.053 0 0 1 16.104 0z" opacity="1" data-original="#33363a"></path><path fill="#33363a" d="M43.285 88.284c-5.267 0-9.551-4.284-9.551-9.551s4.284-9.551 9.551-9.551c5.268 0 9.553 4.284 9.553 9.551s-4.285 9.551-9.553 9.551zm0-16.101c-3.612 0-6.551 2.938-6.551 6.551s2.938 6.551 6.551 6.551 6.553-2.938 6.553-6.551-2.94-6.551-6.553-6.551z" opacity="1" data-original="#33363a"></path><circle cx="39.282" cy="76.116" r="3.28" fill="#ffffff" opacity="1" data-original="#ffffff"></circle><path fill="#33363a" d="M39.281 80.897c-2.636 0-4.779-2.145-4.779-4.781s2.144-4.779 4.779-4.779a4.785 4.785 0 0 1 4.781 4.779 4.785 4.785 0 0 1-4.781 4.781zm0-6.56a1.78 1.78 0 0 0 0 3.56c.982 0 1.781-.799 1.781-1.781 0-.981-.798-1.779-1.781-1.779z" opacity="1" data-original="#33363a"></path><path fill="#a35616" d="M99.765 78.733c0 4.449-3.604 8.051-8.051 8.051s-8.052-3.602-8.052-8.051a8.052 8.052 0 0 1 16.103 0z" opacity="1" data-original="#a35616"></path><path fill="#33363a" d="M99.765 78.733c0 4.449-3.604 1.664-8.051 1.664s-8.052 2.785-8.052-1.664a8.052 8.052 0 0 1 16.103 0z" opacity="1" data-original="#33363a"></path><path fill="#33363a" d="M91.714 88.284c-5.267 0-9.552-4.284-9.552-9.551s4.285-9.551 9.552-9.551 9.551 4.284 9.551 9.551-4.285 9.551-9.551 9.551zm0-16.101c-3.612 0-6.552 2.938-6.552 6.551s2.939 6.551 6.552 6.551 6.551-2.938 6.551-6.551-2.939-6.551-6.551-6.551z" opacity="1" data-original="#33363a"></path><circle cx="87.709" cy="76.116" r="3.28" fill="#ffffff" opacity="1" data-original="#ffffff"></circle><path fill="#33363a" d="M87.71 80.897c-2.637 0-4.781-2.145-4.781-4.781s2.145-4.779 4.781-4.779 4.779 2.144 4.779 4.779a4.784 4.784 0 0 1-4.779 4.781zm0-6.56c-.982 0-1.781.798-1.781 1.779 0 .982.799 1.781 1.781 1.781a1.78 1.78 0 0 0 0-3.56z" opacity="1" data-original="#33363a"></path><path fill="#fbfcf2" d="M83.729 88.479c0 1.391-7.266 1.641-16.229 1.641-8.964 0-16.231-.25-16.231-1.641 0-1.393 7.268-5.031 16.231-5.031 8.964 0 16.229 3.639 16.229 5.031z" opacity="1" data-original="#fbfcf2"></path><path fill="#eae4c5" d="m109.004 88.948 19.929-15.381-22.975 6.577" opacity="1" data-original="#eae4c5"></path><path fill="#33363a" d="M109.005 90.448a1.5 1.5 0 0 1-.917-2.688l13.729-10.597-15.446 4.422a1.5 1.5 0 1 1-.826-2.884l22.975-6.576a1.5 1.5 0 0 1 1.329 2.63L109.92 90.136a1.49 1.49 0 0 1-.915.312z" opacity="1" data-original="#33363a"></path><path fill="#eae4c5" d="M25.996 88.948 6.067 73.567l22.975 6.577" opacity="1" data-original="#eae4c5"></path><path fill="#33363a" d="M25.995 90.448c-.32 0-.643-.102-.915-.312L5.151 74.755a1.5 1.5 0 0 1 1.329-2.63l22.975 6.576a1.5 1.5 0 0 1-.826 2.884l-15.446-4.422L26.912 87.76a1.5 1.5 0 0 1-.917 2.688z" opacity="1" data-original="#33363a"></path><path fill="#ddd2b1" d="m109.563 89.005 20.198 15.588-23.284-6.666" opacity="1" data-original="#ddd2b1"></path><path fill="#33363a" d="M129.761 106.093c-.137 0-.275-.019-.413-.058l-23.284-6.666a1.5 1.5 0 0 1 .826-2.884l15.755 4.511-13.997-10.803a1.5 1.5 0 1 1 1.833-2.375l20.197 15.588a1.5 1.5 0 0 1-.917 2.687z" opacity="1" data-original="#33363a"></path><path fill="#ddd2b1" d="M25.438 89.005 5.24 104.593l23.283-6.666" opacity="1" data-original="#ddd2b1"></path><path fill="#33363a" d="M5.24 106.093a1.5 1.5 0 0 1-.916-2.687l20.197-15.588a1.5 1.5 0 0 1 1.833 2.375l-13.996 10.803 15.753-4.511a1.5 1.5 0 0 1 .826 2.884l-23.283 6.666a1.52 1.52 0 0 1-.414.058z" opacity="1" data-original="#33363a"></path><path fill="#eae4c5" d="m92.13 48.015.637-25.164-9.391 21.974" opacity="1" data-original="#eae4c5"></path><path fill="#33363a" d="M92.131 49.515h-.039a1.502 1.502 0 0 1-1.462-1.538l.439-17.336-6.314 14.774a1.496 1.496 0 0 1-1.969.789 1.499 1.499 0 0 1-.789-1.969l9.391-21.975a1.505 1.505 0 0 1 1.698-.876 1.502 1.502 0 0 1 1.181 1.504l-.637 25.165a1.502 1.502 0 0 1-1.499 1.462z" opacity="1" data-original="#33363a"></path><path fill="#eae4c5" d="m42.869 48.015-.637-25.164 9.391 21.974" opacity="1" data-original="#eae4c5"></path><path fill="#33363a" d="M42.868 49.515a1.5 1.5 0 0 1-1.499-1.462l-.637-25.164a1.5 1.5 0 0 1 2.879-.628l9.391 21.975a1.499 1.499 0 0 1-.789 1.969 1.496 1.496 0 0 1-1.969-.789L43.93 30.641l.439 17.336a1.501 1.501 0 0 1-1.462 1.538h-.039zM88.376 100.163H46.623c-2.757 0-5-2.243-5-5s2.243-5 5-5a1.5 1.5 0 0 1 0 3c-1.103 0-2 .897-2 2s.897 2 2 2h41.753c1.103 0 2-.897 2-2s-.897-2-2-2a1.5 1.5 0 0 1 0-3c2.757 0 5 2.243 5 5s-2.243 5-5 5z" opacity="1" data-original="#33363a"></path><path fill="#ffd039" d="M83.034 52.815c0 7.258-5.887 13.143-13.145 13.143h-4.778c-7.26 0-13.145-5.885-13.145-13.143V29.813c0-7.26 5.885-13.146 13.145-13.146h4.778c7.258 0 13.145 5.887 13.145 13.146z" opacity="1" data-original="#ffd039"></path><path fill="#ffb000" d="M69.89 24.276h-4.778c-7.26 0-13.145 5.887-13.145 13.146v15.393c0 7.258 5.885 13.143 13.145 13.143h4.778c7.258 0 13.145-5.885 13.145-13.143V37.423c-.001-7.26-5.888-13.147-13.145-13.147z" opacity="1" data-original="#ffb000"></path><path fill="#ea7b1f" d="M81.843 30.31c0 .91-.737 1.648-1.646 1.648h-26.53a1.647 1.647 0 0 1 0-3.294h26.53a1.646 1.646 0 0 1 1.646 1.646zM81.843 39.009c0 .91-.737 1.648-1.646 1.648h-26.53a1.647 1.647 0 0 1 0-3.294h26.53a1.647 1.647 0 0 1 1.646 1.646zM81.843 48.536c0 .91-.737 1.648-1.646 1.648h-26.53a1.647 1.647 0 0 1 0-3.294h26.53c.908 0 1.646.738 1.646 1.646zM81.843 58.063c0 .91-.737 1.648-1.646 1.648h-26.53a1.647 1.647 0 0 1 0-3.294h26.53c.908 0 1.646.738 1.646 1.646z" opacity="1" data-original="#ea7b1f"></path><path fill="#33363a" d="M69.89 67.458h-4.778c-8.075 0-14.645-6.568-14.645-14.643V29.813c0-8.076 6.569-14.646 14.645-14.646h4.778c8.075 0 14.645 6.57 14.645 14.646v23.002c-.001 8.075-6.57 14.643-14.645 14.643zm-4.779-49.291c-6.421 0-11.645 5.225-11.645 11.646v23.002c0 6.42 5.224 11.643 11.645 11.643h4.778c6.421 0 11.645-5.223 11.645-11.643V29.813c0-6.422-5.224-11.646-11.645-11.646z" opacity="1" data-original="#33363a"></path><path fill="#33363a" d="M58.688 29.335h-.953a1.5 1.5 0 0 1 0-3h.953a1.5 1.5 0 0 1 0 3zM77.266 29.335h-.952a1.5 1.5 0 0 1 0-3h.952a1.5 1.5 0 0 1 0 3zM71.669 29.335h-8.337a1.5 1.5 0 0 1 0-3h8.337a1.5 1.5 0 0 1 0 3zM58.688 38.862h-.953a1.5 1.5 0 0 1 0-3h.953a1.5 1.5 0 0 1 0 3zM77.266 38.862h-.952a1.5 1.5 0 0 1 0-3h.952a1.5 1.5 0 0 1 0 3zM71.669 38.862h-8.337a1.5 1.5 0 0 1 0-3h8.337a1.5 1.5 0 0 1 0 3zM58.688 48.39h-.953a1.5 1.5 0 0 1 0-3h.953a1.5 1.5 0 0 1 0 3zM77.266 48.39h-.952a1.5 1.5 0 0 1 0-3h.952a1.5 1.5 0 0 1 0 3zM71.669 48.39h-8.337a1.5 1.5 0 0 1 0-3h8.337a1.5 1.5 0 0 1 0 3zM58.688 57.917h-.953a1.5 1.5 0 0 1 0-3h.953a1.5 1.5 0 0 1 0 3zM77.266 57.917h-.952a1.5 1.5 0 0 1 0-3h.952a1.5 1.5 0 0 1 0 3zM71.669 57.917h-8.337a1.5 1.5 0 0 1 0-3h8.337a1.5 1.5 0 0 1 0 3zM49.25 103.333a1.5 1.5 0 0 1-1.5-1.5v-2a1.5 1.5 0 0 1 3 0v2a1.5 1.5 0 0 1-1.5 1.5zM85.75 103.333a1.5 1.5 0 0 1-1.5-1.5v-2a1.5 1.5 0 0 1 3 0v2a1.5 1.5 0 0 1-1.5 1.5z" opacity="1" data-original="#33363a"></path></g></svg>